# xmcd
#
# Track frame offsets: 
#        150
#        24702
#        50917
#        80657
#        107659
#        141336
#        164626
#        188178
#        215555
#        240307
#
# Disc length: 3755 seconds
#
# Revision: 0
# Processed by: cddbd v1.5.2PL0 Copyright (c) Steve Scherf et al.
# Submitted via: ExactAudioCopyFreeDBPlugin 1.0
#
DISCID=930ea90a
DTITLE=朱哲琴 - 阿姐鼓.央金玛
DYEAR=1900
DGENRE=中文流行曲
TTITLE0=拉萨谣
TTITLE1=阿姐鼓
TTITLE2=央金玛
TTITLE3=没有阴影的家园
TTITLE4=天唱
TTITLE5=卓玛的卓玛
TTITLE6=喜马拉雅人
TTITLE7=羚羊过山岗
TTITLE8=信徒
TTITLE9=转经：祈祷轮
EXTD=
EXTT0=
EXTT1=
EXTT2=
EXTT3=
EXTT4=
EXTT5=
EXTT6=
EXTT7=
EXTT8=
EXTT9=
PLAYORDER=
